<mxfile host="app.diagrams.net" modified="2023-04-27T17:09:52.573Z" agent="Mozilla/5.0 (X11; Linux x86_64) AppleWebKit/537.36 (KHTML, like Gecko) Chrome/112.0.0.0 Safari/537.36" etag="giKizxLPVh6O0bxgp9KC" version="21.2.2" type="device">
  <diagram name="PÃ¡gina-1" id="ilOm4YAjoJ5LVX_cUKq9">
    <mxGraphModel dx="880" dy="467" grid="1" gridSize="10" guides="1" tooltips="1" connect="1" arrows="1" fold="1" page="1" pageScale="1" pageWidth="827" pageHeight="1169" math="0" shadow="0">
      <root>
        <mxCell id="0" />
        <mxCell id="1" parent="0" />
        <mxCell id="cegc9hlBqk29iwjMtypI-1" value="TicTacToe" style="swimlane;fontStyle=1;align=center;verticalAlign=top;childLayout=stackLayout;horizontal=1;startSize=26;horizontalStack=0;resizeParent=1;resizeParentMax=0;resizeLast=0;collapsible=1;marginBottom=0;whiteSpace=wrap;html=1;" parent="1" vertex="1">
          <mxGeometry x="240" y="40" width="339" height="146" as="geometry" />
        </mxCell>
        <mxCell id="cegc9hlBqk29iwjMtypI-4" value="+ __init__(cerquilha: list, pontuacao_x: int, pontuacao_o:int )&lt;br&gt;+ cerquilha: () list&lt;br&gt;+ cerquilha(cerquilha): list&lt;br&gt;+ pontuacao_x:() int&lt;br&gt;+ pontuacao_x(pontuacao_x): int&lt;br&gt;+ pontuacao_o(): int&lt;br&gt;+ pontuacao_o(pontuacao_o): int" style="text;strokeColor=none;fillColor=none;align=left;verticalAlign=top;spacingLeft=4;spacingRight=4;overflow=hidden;rotatable=0;points=[[0,0.5],[1,0.5]];portConstraint=eastwest;whiteSpace=wrap;html=1;" parent="cegc9hlBqk29iwjMtypI-1" vertex="1">
          <mxGeometry y="26" width="339" height="120" as="geometry" />
        </mxCell>
        <mxCell id="_idYy4MtMYaj6DMfLPL0-1" value="ControllerTicTacToe" style="swimlane;fontStyle=1;align=center;verticalAlign=top;childLayout=stackLayout;horizontal=1;startSize=26;horizontalStack=0;resizeParent=1;resizeParentMax=0;resizeLast=0;collapsible=1;marginBottom=0;whiteSpace=wrap;html=1;" vertex="1" parent="1">
          <mxGeometry x="240" y="210" width="300" height="86" as="geometry" />
        </mxCell>
        <mxCell id="_idYy4MtMYaj6DMfLPL0-2" value="- controller_principal&lt;br&gt;- tela_tic_tac_toe: TelaTicTacToe" style="text;strokeColor=none;fillColor=none;align=left;verticalAlign=top;spacingLeft=4;spacingRight=4;overflow=hidden;rotatable=0;points=[[0,0.5],[1,0.5]];portConstraint=eastwest;whiteSpace=wrap;html=1;" vertex="1" parent="_idYy4MtMYaj6DMfLPL0-1">
          <mxGeometry y="26" width="300" height="26" as="geometry" />
        </mxCell>
        <mxCell id="_idYy4MtMYaj6DMfLPL0-3" value="" style="line;strokeWidth=1;fillColor=none;align=left;verticalAlign=middle;spacingTop=-1;spacingLeft=3;spacingRight=3;rotatable=0;labelPosition=right;points=[];portConstraint=eastwest;strokeColor=inherit;" vertex="1" parent="_idYy4MtMYaj6DMfLPL0-1">
          <mxGeometry y="52" width="300" height="8" as="geometry" />
        </mxCell>
        <mxCell id="_idYy4MtMYaj6DMfLPL0-4" value="+ method(type): type" style="text;strokeColor=none;fillColor=none;align=left;verticalAlign=top;spacingLeft=4;spacingRight=4;overflow=hidden;rotatable=0;points=[[0,0.5],[1,0.5]];portConstraint=eastwest;whiteSpace=wrap;html=1;" vertex="1" parent="_idYy4MtMYaj6DMfLPL0-1">
          <mxGeometry y="60" width="300" height="26" as="geometry" />
        </mxCell>
      </root>
    </mxGraphModel>
  </diagram>
</mxfile>
